<svg xmlns="http://www.w3.org/2000/svg" viewBox="0 0 100 100">
  <!-- Cabeza -->
  <circle cx="50" cy="38" r="22" fill="#FBBF24"/>
  <!-- Ojos -->
  <circle cx="42" cy="34" r="3.5" fill="#1e293b"/>
  <circle cx="58" cy="34" r="3.5" fill="#1e293b"/>
  <!-- Brillo ojos -->
  <circle cx="43.5" cy="32.5" r="1.2" fill="white"/>
  <circle cx="59.5" cy="32.5" r="1.2" fill="white"/>
  <!-- Sonrisa -->
  <path d="M41 44 Q50 54 59 44" stroke="#1e293b" stroke-width="2.2" fill="none" stroke-linecap="round"/>
  <!-- Cuello -->
  <rect x="44" y="57" width="12" height="9" fill="#FBBF24"/>
  <!-- Cuerpo / Camiseta -->
  <path d="M18 100 L18 74 Q18 66 26 63 L36 60 L50 68 L64 60 L74 63 Q82 66 82 74 L82 100 Z" fill="#ef4444"/>
  <!-- Franja camiseta -->
  <rect x="18" y="78" width="64" height="6" fill="white" opacity="0.3"/>
  <!-- Bufanda -->
  <path d="M28 60 Q50 72 72 60" stroke="#f97316" stroke-width="6" fill="none" stroke-linecap="round"/>
  <path d="M28 60 L22 76" stroke="#f97316" stroke-width="6" fill="none" stroke-linecap="round"/>
</svg>
